<?xml version="1.0" encoding="UTF-8"?>
<svg width="361px" height="78px" viewBox="0 0 361 78" version="1.1" xmlns="http://www.w3.org/2000/svg" xmlns:xlink="http://www.w3.org/1999/xlink">
    <title>Combined Shape</title>
    <g id="Page-1" stroke="none" stroke-width="1" fill="none" fill-rule="evenodd" opacity="0.14">
        <g id="Artboard-Copy-2" transform="translate(-288, -257)" fill="#3E3F3C" fill-rule="nonzero">
            <path d="M314.792627,335 C329.364055,335 339,327.677914 339,309.96319 L339,258 L322.548387,258 L322.548387,307.128834 C322.548387,325.434049 319.728111,328.976994 313.5,328.976994 C307.389401,328.976994 304.569124,324.489264 304.569124,308.309816 L304.569124,258 L288,258 L288,309.96319 C288,327.677914 300.573733,335 314.792627,335 Z M373.792627,257 C359.573733,257 347,264.08589 347,281.446319 L347,334 L363.569124,334 L363.569124,300.909083 L381.548387,300.909083 L381.548387,334 L398,334 L398,282.03681 C398,264.322086 388.364055,257 373.792627,257 Z M363.569124,283.690184 C363.804147,271.171779 366.389401,263.023006 372.5,263.023006 C378.728111,263.023006 381.548387,268.337423 381.548387,281.918712 L381.548387,291.792093 L363.569124,291.792093 L363.569124,283.690184 Z M425.704545,300.492062 L442.110795,300.492062 L442.110795,291.082491 L425.704545,291.082491 L425.704545,268.075437 L451,268.075437 L451,258 L409,258 L409,311.374225 L409,334 L451,334 L451,323.924563 L425.704545,323.924563 L425.704545,300.492062 Z M462,258 L462,334 L478,334 L478,258 L462,258 Z M541.274194,334 L557.725806,334 L557.725806,313.510972 C568.301843,311.962382 575,306.00627 575,291.115987 L575,258 L558.548387,258 L558.548387,291.23511 C558.548387,304.934169 555.728111,307.912226 549.5,307.912226 C543.389401,307.912226 540.569124,304.338558 540.569124,291.711599 L540.569124,258 L524,258 L524,291.711599 C524,305.172414 531.403226,311.128527 541.274194,313.153605 L541.274194,334 Z M583,295.882883 C583,329.144144 599.853571,335 616.589286,335 C630.85,335 644.992857,330.783784 649,309.468468 L630.378571,309.351351 C628.492857,318.954955 627.667857,330.783784 618.475,330.783784 C606.1,330.783784 602.210714,316.144144 602.210714,295.882883 C602.210714,270.468468 607.75,261.216216 618.592857,261.216216 C625.664286,261.216216 628.139286,269.18018 630.260714,281.126126 L648.764286,281.126126 C644.403571,260.981982 630.496429,257 616.589286,257 C599.853571,257 583,262.738739 583,295.882883 Z M517,258 C515.75864,276.172772 504.760382,283.887713 497.273663,288.645161 C496.179498,289.340451 495.982924,289.879118 495.403265,290.168373 C492.051399,291.840981 490.850558,294.864665 492.508659,296.240037 C493.495957,297.058987 493.468665,294.891478 497.969102,297.459559 C512.291653,305.632426 517.985292,316.562515 515.642772,334 L495.403265,334 C502.201008,315.856171 495.136278,306.601881 483.655614,298.858934 C480.459965,296.714734 480.104893,294.332288 482.827112,291.830721 C493.952705,281.586207 499,271.469521 497.010948,258 Z M502.630195,289.014699 C504.028199,289.10501 500.980176,289.450987 501.423301,290.015984 C502.227897,291.041865 501.086797,291.265601 498,290.68719 C499.309946,289.457411 500.853344,288.899914 502.630195,289.014699 Z" id="Combined-Shape"></path>
        </g>
    </g>
</svg>